# xmcd
#
# Track frame offsets: 
#        150
#        16951
#        32185
#        50627
#        66425
#        87712
#        106822
#        122808
#        136520
#        153157
#        171916
#
# Disc length: 2614 seconds
#
# Revision: 0
# Processed by: cddbd v1.5.2PL0 Copyright (c) Steve Scherf et al.
# Submitted via: ExactAudioCopy v0.95b3
#
DISCID=910a340b
DTITLE=Jason Boland and The Stragglers - The Bourbon Legend
DYEAR=2006
DGENRE=Country
TTITLE0=Last Country Song
TTITLE1=Bourbon Legend
TTITLE2=No One Left to Blame
TTITLE3=Jesus and Ruger
TTITLE4=Up and Gone
TTITLE5=Baby That's Just Me
TTITLE6=Can't Tell If I Drink
TTITLE7=Lonely by Choice
TTITLE8=Rattlesnakes
TTITLE9=Time in Hell
TTITLE10=Everyday Life
EXTD=
EXTT0=
EXTT1=
EXTT2=
EXTT3=
EXTT4=
EXTT5=
EXTT6=
EXTT7=
EXTT8=
EXTT9=
EXTT10=
PLAYORDER=
